<?xml version="1.0" encoding="utf-8"?>
<svg id="master-artboard" viewBox="0 0 1400 980" version="1.1" xmlns="http://www.w3.org/2000/svg" x="0px" y="0px" style="enable-background:new 0 0 1400 980;" width="1400px" height="980px"><rect id="ee-background" x="0" y="0" width="1400" height="980" style="fill: white; fill-opacity: 0; pointer-events: none;"/><defs><style id="ee-google-fonts">@import url(https://fonts.googleapis.com/css?family=Andada:400);</style></defs>











































<g transform="matrix(0.9999999999999999, 0, 0, 0.9999999999999999, 1.8189894035458565e-12, 4.547473508864641e-13)">
		<path class="st13" d="M448.4,599.9" style="fill: rgb(223, 243, 251);"/>
	</g>





















































<g transform="matrix(2.4981472492218018, 0, 0, 2.4981472492218018, -663.0677490234375, -458.53405918565625)"><g transform="matrix(1.8552718162536619, 0, 0, 1.8552718162536619, -1708.7017822265623, -619.5245361328125)"><g transform="matrix(1, 0, 0, 1, 0, 0)"><path d="M 1063.5999755859375 461 L 1091.5 489.5 L 1066.300048828125 515.2000122070312 L 1136.4000244140625 515.2000122070312 L 1136.4000244140625 461 Z" class="st16" style="fill: rgb(252, 174, 38);" transform="matrix(1, 0, 0, 1, 1.8189894035458565e-12, 4.547473508864641e-13)"/><path d="M 1136.4000244140625 461 L 1075.300048828125 539.9000244140625 L 1136.4000244140625 515.2000122070312 Z" class="st17" style="fill: rgb(203, 122, 31);" transform="matrix(1, 0, 0, 1, 1.8189894035458565e-12, 4.547473508864641e-13)"/><path d="M 1357.5999755859375 566.0999755859375 L 1286.4000244140625 566.0999755859375 L 1286.4000244140625 619.2000122070312 L 1361.4000244140625 619.2000122070312 L 1332.4000244140625 592.7000122070312 Z" class="st16" style="fill: rgb(252, 174, 38);" transform="matrix(1, 0, 0, 1, 1.8189894035458565e-12, 4.547473508864641e-13)"/><path d="M 1346.5999755859375 539.9000244140625 L 1286.4000244140625 619.2000122070312 L 1286.4000244140625 566.0999755859375 Z" class="st17" style="fill: rgb(203, 122, 31);" transform="matrix(1, 0, 0, 1, 1.8189894035458565e-12, 4.547473508864641e-13)"/><path d="M 1211 631.9000244140625 L 1075.300048828125 539.9000244140625 L 1211 448 L 1346.5999755859375 539.9000244140625 Z" class="st18" style="fill: rgb(255, 203, 31);" transform="matrix(1, 0, 0, 1, 1.8189894035458565e-12, 4.547473508864641e-13)"/></g></g></g><path d="M 258.41986083984375 217.367431640625 L 264.41986083984375 217.05743408203125 C 266.1731872558594 217.05743408203125 267.6465148925781 217.5374298095703 268.83984375 218.4974365234375 C 270.03985595703125 219.45742797851562 270.6398620605469 220.68075561523438 270.6398620605469 222.1674346923828 C 270.6398620605469 223.64743041992188 270.2165222167969 224.867431640625 269.3698425292969 225.82742309570312 C 268.523193359375 226.7874298095703 267.40985107421875 227.42076110839844 266.02984619140625 227.72743225097656 L 266.02984619140625 227.9474334716797 C 267.7165222167969 228.21409606933594 269.0598449707031 228.8174285888672 270.0598449707031 229.75743103027344 C 271.0598449707031 230.6974334716797 271.5598449707031 232.00743103027344 271.5598449707031 233.6874237060547 C 271.5598449707031 235.367431640625 270.9365234375 236.75408935546875 269.6898498535156 237.84742736816406 C 268.44317626953125 238.94076538085938 266.8831787109375 239.4874267578125 265.0098571777344 239.4874267578125 L 259.8698425292969 239.17742919921875 L 258.8798522949219 239.17742919921875 C 258.1798400878906 239.17742919921875 257.4365234375 239.22743225097656 256.64984130859375 239.32742309570312 L 255.37985229492188 239.45742797851562 L 255.1698455810547 237.6974334716797 L 257.54986572265625 237.4174346923828 C 257.5698547363281 237.2307586669922 257.62652587890625 236.8740997314453 257.7198486328125 236.34742736816406 C 257.81317138671875 235.82077026367188 257.85986328125 235.35076904296875 257.85986328125 234.9374237060547 L 257.85986328125 221.607421875 C 257.85986328125 221.30076599121094 257.81317138671875 220.88409423828125 257.7198486328125 220.357421875 C 257.62652587890625 219.8307647705078 257.5698547363281 219.42076110839844 257.54986572265625 219.12742614746094 L 255.1698455810547 218.75743103027344 L 255.31985473632812 217.21743774414062 L 256.3098449707031 217.30743408203125 C 257.0965270996094 217.34742736816406 257.74652099609375 217.367431640625 258.2598571777344 217.367431640625 L 258.41986083984375 217.367431640625 M 260.8898620605469 218.9174346923828 L 260.7098388671875 222.5374298095703 L 260.7098388671875 234.00743103027344 C 260.7098388671875 235.55409240722656 260.7698669433594 236.7007598876953 260.8898620605469 237.4474334716797 C 261.85650634765625 237.58743286132812 262.9665222167969 237.6574249267578 264.2198486328125 237.6574249267578 C 265.4665222167969 237.6574249267578 266.49652099609375 237.27743530273438 267.3098449707031 236.51742553710938 C 268.1231994628906 235.75743103027344 268.52984619140625 234.6607666015625 268.52984619140625 233.22743225097656 C 268.52984619140625 231.79409790039062 267.9798583984375 230.69076538085938 266.8798522949219 229.9174346923828 C 265.773193359375 229.1440887451172 264.426513671875 228.75743103027344 262.83984375 228.75743103027344 L 262.4698486328125 228.75743103027344 L 262.6898498535156 226.9874267578125 L 262.9298400878906 226.9874267578125 C 264.3165283203125 226.9874267578125 265.4565124511719 226.6107635498047 266.349853515625 225.857421875 C 267.2498474121094 225.10409545898438 267.6998596191406 224.09410095214844 267.6998596191406 222.82742309570312 C 267.6998596191406 221.56076049804688 267.33319091796875 220.56076049804688 266.599853515625 219.82742309570312 C 265.86651611328125 219.09410095214844 264.95318603515625 218.72743225097656 263.85986328125 218.72743225097656 C 262.7665100097656 218.72743225097656 261.7765197753906 218.79075622558594 260.8898620605469 218.9174346923828 ZM 276.7623596191406 217.367431640625 L 282.4523620605469 217.05743408203125 C 284.6390380859375 217.05743408203125 286.335693359375 217.6140899658203 287.5423583984375 218.72743225097656 C 288.7490234375 219.84075927734375 289.35235595703125 221.444091796875 289.35235595703125 223.5374298095703 C 289.35235595703125 225.63076782226562 288.6257019042969 227.26075744628906 287.17236328125 228.42742919921875 C 285.7190246582031 229.59410095214844 283.9090270996094 230.17742919921875 281.74237060546875 230.17742919921875 C 280.50238037109375 230.17742919921875 279.595703125 230.1674346923828 279.0223693847656 230.14743041992188 L 279.0223693847656 234.00743103027344 C 279.0223693847656 235.14743041992188 279.11236572265625 236.2307586669922 279.2923583984375 237.25743103027344 L 282.2623596191406 237.47743225097656 L 282.0823669433594 239.29742431640625 L 280.4423828125 239.2374267578125 C 279.162353515625 239.1974334716797 278.1257019042969 239.17742919921875 277.3323669433594 239.17742919921875 C 276.5390319824219 239.17742919921875 275.7490234375 239.22743225097656 274.9623718261719 239.32742309570312 L 273.6923828125 239.45742797851562 L 273.48236083984375 237.6974334716797 L 275.86236572265625 237.4174346923828 C 275.8823547363281 237.2307586669922 275.93902587890625 236.8740997314453 276.0323791503906 236.34742736816406 C 276.1257019042969 235.82077026367188 276.17236328125 235.35076904296875 276.17236328125 234.9374237060547 L 276.17236328125 221.607421875 C 276.17236328125 221.30076599121094 276.1257019042969 220.88409423828125 276.0323791503906 220.357421875 C 275.93902587890625 219.8307647705078 275.8823547363281 219.42076110839844 275.86236572265625 219.12742614746094 L 273.48236083984375 218.75743103027344 L 273.6323547363281 217.21743774414062 L 274.62237548828125 217.30743408203125 C 275.4090270996094 217.34742736816406 276.05902099609375 217.367431640625 276.5723571777344 217.367431640625 L 276.7623596191406 217.367431640625 M 281.12237548828125 228.62742614746094 C 282.76904296875 228.62742614746094 284.06903076171875 228.2041015625 285.0223693847656 227.357421875 C 285.9690246582031 226.51075744628906 286.4423828125 225.2740936279297 286.4423828125 223.64743041992188 C 286.4423828125 222.02076721191406 285.9723815917969 220.7740936279297 285.0323791503906 219.9074249267578 C 284.0923767089844 219.04075622558594 282.7990417480469 218.607421875 281.1523742675781 218.607421875 C 280.69903564453125 218.607421875 280.05902099609375 218.6574249267578 279.23236083984375 218.75743103027344 L 279.23236083984375 218.82742309570312 L 279.11236572265625 220.08743286132812 C 279.0523681640625 220.58743286132812 279.0223693847656 221.4040985107422 279.0223693847656 222.5374298095703 L 279.0223693847656 228.50743103027344 C 279.7023620605469 228.58743286132812 280.4023742675781 228.62742614746094 281.12237548828125 228.62742614746094 Z" transform="matrix(18.17535972595215, 0, 0, 18.17535972595215, -4236.6455078125, -3659.949462890625)" style="fill: rgb(31, 79, 105); white-space: pre; color: rgb(0, 0, 0);"/></svg>