<?xml version="1.0" encoding="utf-8"?>
<svg id="master-artboard" viewBox="0 0 1400 980" version="1.1" xmlns="http://www.w3.org/2000/svg" x="0px" y="0px" style="enable-background:new 0 0 336 235.2;" width="1400px" height="980px"><rect id="ee-background" x="0" y="0" width="1400" height="980" style="fill: white; fill-opacity: 0; pointer-events: none;"/><defs><style id="ee-google-fonts">@import url(https://fonts.googleapis.com/css?family=Audiowide:400);</style></defs>


<path class="st1" d="M72.2,234.6h192.3c30.6-26.7,50-66,50-109.7c0-52.8-28.2-99-70.4-124.6H92.6C50.4,25.9,22.2,72.1,22.2,124.9&#10;&#9;&#9;C22.2,168.7,41.6,207.9,72.2,234.6z" style="fill: rgb(66, 62, 89);" transform="matrix(4.198465824127197, 0, 0, 4.198465824127197, -6.435810748937968, -4)"/>
<path d="M 278.399994 124.599998 A 110 110 0 0 1 168.399994 234.599998 A 110 110 0 0 1 58.399994 124.599998 A 110 110 0 0 1 168.399994 14.599998 A 110 110 0 0 1 278.399994 124.599998 Z" class="st2" style="fill: rgb(74, 69, 99);" transform="matrix(4.198465824127197, 0, 0, 4.198465824127197, -5, -4)"/>
<path class="st3" d="M91,122.8C91,122.9,91,122.9,91,122.8c0,42.8,34.6,77.4,77.4,77.4s77.4-34.6,77.4-77.4c0,0,0,0,0-0.1H91z" style="fill: rgb(250, 116, 52);" transform="matrix(4.198465824127197, 0, 0, 4.198465824127197, -5, -4)"/>
<path class="st4" d="M98.9,157.1c12.6,25.6,39,43.2,69.4,43.2s56.8-17.6,69.4-43.2H98.9z" style="fill: rgb(252, 171, 15);" transform="matrix(4.198465824127197, 0, 0, 4.198465824127197, -5, -4)"/>
<path class="st3" d="M118,181.6c13.5,11.6,31.1,18.7,50.4,18.7c19.2,0,36.8-7,50.4-18.7H118z" style="fill: rgb(250, 116, 52);" transform="matrix(4.198465824127197, 0, 0, 4.198465824127197, -5, -4)"/>
<path class="st5" d="M236.9,123.5h-3c0-36.1-29.4-65.5-65.5-65.5c-36.1,0-65.5,29.4-65.5,65.5h-3c0-37.8,30.7-68.5,68.5-68.5&#10;&#9;&#9;C206.1,55,236.9,85.7,236.9,123.5z" style="fill: rgb(248, 233, 211);" transform="matrix(4.198465824127197, 0, 0, 4.198465824127197, -5, -4)"/>
<path class="st5" d="M168.4,211.7c-48.7,0-88.2-39.6-88.2-88.2c0-48.7,39.6-88.2,88.2-88.2c48.7,0,88.2,39.6,88.2,88.2&#10;&#9;&#9;C256.6,172.2,217,211.7,168.4,211.7z M168.4,38.3c-47,0-85.2,38.2-85.2,85.2c0,47,38.2,85.2,85.2,85.2c47,0,85.2-38.2,85.2-85.2&#10;&#9;&#9;C253.6,76.5,215.4,38.3,168.4,38.3z" style="fill: rgb(248, 233, 211); opacity: 0.3;" transform="matrix(4.198465824127197, 0, 0, 4.198465824127197, -5, -4)"/>
<path class="st5" d="M265.2,121.6c-0.6,0-1-0.4-1-1c0-14.8-3.7-29.4-10.7-42.2c-2.8-5.2-6.2-10.2-10.1-14.8&#10;&#9;&#9;c-0.4-0.4-0.3-1.1,0.1-1.4c0.4-0.4,1.1-0.3,1.4,0.1c3.9,4.7,7.4,9.8,10.3,15.1c7.2,13.2,10.9,28.1,10.9,43.2&#10;&#9;&#9;C266.2,121.2,265.8,121.6,265.2,121.6z" style="fill: rgb(248, 233, 211);" transform="matrix(4.198465824127197, 0, 0, 4.198465824127197, -5, -4)"/>
<path class="st5" d="M169.7,222.1c-13.7,0-26.9-2.7-39.3-8c-17.8-7.6-33-20.1-43.9-36.2c-11.3-16.7-17.3-36.2-17.3-56.4&#10;&#9;&#9;c0-0.6,0.4-1,1-1c0.6,0,1,0.4,1,1c0,19.8,5.9,39,17,55.3c10.7,15.8,25.6,28,43.1,35.4c12.2,5.2,25.2,7.8,38.6,7.8&#10;&#9;&#9;c14.1,0,27.7-2.9,40.4-8.6c0.5-0.2,1.1,0,1.3,0.5c0.2,0.5,0,1.1-0.5,1.3C198,219.1,184.1,222.1,169.7,222.1z" style="fill: rgb(248, 233, 211);" transform="matrix(4.198465824127197, 0, 0, 4.198465824127197, -5, -4)"/>
<path class="st7" d="M168.4,15c0,0-3.5,0-6.7,6.6c-3.2,6.6-8.8,29.1-10.8,37.1c-2,8-6.4,14.3-16.5,18.1s-12.6,9.4-12.6,11.6h46.6" style="fill: rgb(255, 216, 186);" transform="matrix(4.198465824127197, 0, 0, 4.198465824127197, -5, -4)"/>
<path class="st7" d="M168.4,15c0,0,3.5,0,6.7,6.6c3.2,6.6,8.8,29.1,10.8,37.1c2,8,6.4,14.3,16.5,18.1c10.2,3.8,12.6,9.4,12.6,11.6&#10;&#9;&#9;h-46.6" style="fill: rgb(255, 216, 186);" transform="matrix(4.198465824127197, 0, 0, 4.198465824127197, -5, -4)"/>
<path d="M 161.800003 31.9 L 159.199997 39.099998 L 161.800003 38.099998 L 168.399994 38.099998 L 168.399994 31.9" class="st8" style="fill: rgb(154, 84, 72);" transform="matrix(4.198465824127197, 0, 0, 4.198465824127197, -5, -4)"/>
<path d="M 174.899994 31.9 L 177.600006 39.099998 L 174.899994 38.099998 L 168.399994 38.099998 L 168.399994 31.9" class="st8" style="fill: rgb(154, 84, 72);" transform="matrix(4.198465824127197, 0, 0, 4.198465824127197, -5, -4)"/>
<path d="M 121.800003 88.300003 H 215 V 93.900003 H 121.800003 V 88.300003 Z" class="st9" style="fill: rgb(248, 122, 50);" transform="matrix(4.198465824127197, 0, 0, 4.198465824127197, -5, -4)"/>
<path d="M 159.199997 43.900002 H 177.599997 V 101.900002 H 159.199997 V 43.900002 Z" class="st5" style="fill: rgb(248, 233, 211);" transform="matrix(4.198465824127197, 0, 0, 4.198465824127197, -5, -4)"/>
<path d="M 159.199997 101.800003 H 177.599997 V 106.400003 H 159.199997 V 101.800003 Z" class="st9" style="fill: rgb(248, 122, 50);" transform="matrix(4.198465824127197, 0, 0, 4.198465824127197, -5, -4)"/>
<path d="M 137.800003 79.900002 H 138.900003 V 88.600001 H 137.800003 V 79.900002 Z" class="st9" style="fill: rgb(248, 122, 50);" transform="matrix(4.198465824127197, 0, 0, 4.198465824127197, -5, -4)"/>
<path d="M 141.800003 79.900002 H 142.900003 V 88.600001 H 141.800003 V 79.900002 Z" class="st9" style="fill: rgb(248, 122, 50);" transform="matrix(4.198465824127197, 0, 0, 4.198465824127197, -5, -4)"/>
<path d="M 145.800003 77 H 146.900003 V 88.5 H 145.800003 V 77 Z" class="st9" style="fill: rgb(248, 122, 50);" transform="matrix(4.198465824127197, 0, 0, 4.198465824127197, -5, -4)"/>
<path d="M 149.800003 72.800003 H 150.900003 V 88.500003 H 149.800003 V 72.800003 Z" class="st9" style="fill: rgb(248, 122, 50);" transform="matrix(4.198465824127197, 0, 0, 4.198465824127197, -5, -4)"/>
<path d="M 197.300003 79.900002 H 198.400003 V 88.600001 H 197.300003 V 79.900002 Z" class="st9" style="fill: rgb(248, 122, 50);" transform="matrix(4.198465824127197, 0, 0, 4.198465824127197, -5, -4)"/>
<path d="M 193.300003 79.900002 H 194.400003 V 88.600001 H 193.300003 V 79.900002 Z" class="st9" style="fill: rgb(248, 122, 50);" transform="matrix(4.198465824127197, 0, 0, 4.198465824127197, -5, -4)"/>
<path d="M 189.300003 77 H 190.400003 V 88.5 H 189.300003 V 77 Z" class="st9" style="fill: rgb(248, 122, 50);" transform="matrix(4.198465824127197, 0, 0, 4.198465824127197, -5, -4)"/>
<path d="M 185.300003 72.800003 H 186.400003 V 88.500003 H 185.300003 V 72.800003 Z" class="st9" style="fill: rgb(248, 122, 50);" transform="matrix(4.198465824127197, 0, 0, 4.198465824127197, -5, -4)"/>
<path class="st10" d="M289.5,39.8c-0.5,0-1-0.1-1.4-0.1c-0.8,0-1.6,0-2.4,0.1c0.8-0.1,1.6-0.1,2.4-0.1&#10;&#9;&#9;&#9;C288.6,39.8,289.1,39.8,289.5,39.8z" style="fill: rgb(250, 139, 79);" transform="matrix(4.198465824127197, 0, 0, 4.198465824127197, -5, -4)"/><path class="st13" d="M282.8,40.4c0,0-0.1,0.1-0.1,0.1c1-0.3,2-0.5,3-0.6C284.7,40,283.8,40.2,282.8,40.4z" style="fill: rgb(235, 213, 105);" transform="matrix(4.198465824127197, 0, 0, 4.198465824127197, -5, -4)"/>









<path d="M63.6,21c5.3,4.3,8.7,10.8,8.7,18.1c0,13-10.8,23.6-24.2,23.6c-7.5,0-14.1-3.3-18.6-8.5c3.7,9.9,13.5,17,25,17&#10;&#9;&#9;c14.7,0,26.6-11.6,26.6-25.9C81.1,34.2,73.8,24.6,63.6,21z" transform="matrix(4.198465824127197, 0, 0, 4.198465824127197, -5, -4)" style="opacity: 0.03;"/>
<g transform="matrix(4.198465824127197, 0, 0, 4.198465824127197, -5, -4)">
		<path d="M 237.700003 53.200001 A 14.9 14.9 0 0 1 222.800003 68.1 A 14.9 14.9 0 0 1 207.900003 53.200001 A 14.9 14.9 0 0 1 222.800003 38.300001 A 14.9 14.9 0 0 1 237.700003 53.200001 Z" class="st17" style="fill: rgb(255, 230, 115);"/>
	</g>
<path d="M 232.099997 47.5 A 1.9 1.9 0 0 1 230.199997 49.4 A 1.9 1.9 0 0 1 228.299997 47.5 A 1.9 1.9 0 0 1 230.199997 45.6 A 1.9 1.9 0 0 1 232.099997 47.5 Z" class="st13" style="fill: rgb(235, 213, 105);" transform="matrix(4.198465824127197, 0, 0, 4.198465824127197, -5, -4)"/>
<path d="M 217.500003 45 A 1.2 1.2 0 0 1 216.300003 46.2 A 1.2 1.2 0 0 1 215.100003 45 A 1.2 1.2 0 0 1 216.300003 43.8 A 1.2 1.2 0 0 1 217.500003 45 Z" class="st13" style="fill: rgb(235, 213, 105);" transform="matrix(4.198465824127197, 0, 0, 4.198465824127197, -5, -4)"/>
<path d="M 223.599994 63.200001 A 1.2 1.2 0 0 1 222.399994 64.400001 A 1.2 1.2 0 0 1 221.199994 63.200001 A 1.2 1.2 0 0 1 222.399994 62.000001 A 1.2 1.2 0 0 1 223.599994 63.200001 Z" class="st18" style="fill: rgb(207, 186, 92);" transform="matrix(4.198465824127197, 0, 0, 4.198465824127197, -5, -4)"/>
<path d="M 217.500003 60.900002 A 1.2 1.2 0 0 1 216.300003 62.100002 A 1.2 1.2 0 0 1 215.100003 60.900002 A 1.2 1.2 0 0 1 216.300003 59.700001 A 1.2 1.2 0 0 1 217.500003 60.900002 Z" class="st13" style="fill: rgb(235, 213, 105);" transform="matrix(4.198465824127197, 0, 0, 4.198465824127197, -5, -4)"/>
<path d="M 222.399997 55.400002 A 1.2 1.2 0 0 1 221.199997 56.600002 A 1.2 1.2 0 0 1 219.999997 55.400002 A 1.2 1.2 0 0 1 221.199997 54.200001 A 1.2 1.2 0 0 1 222.399997 55.400002 Z" class="st13" style="fill: rgb(235, 213, 105);" transform="matrix(4.198465824127197, 0, 0, 4.198465824127197, -5, -4)"/>
<path d="M 226.599994 42 A 1.2 1.2 0 0 1 225.399994 43.2 A 1.2 1.2 0 0 1 224.199994 42 A 1.2 1.2 0 0 1 225.399994 40.8 A 1.2 1.2 0 0 1 226.599994 42 Z" class="st18" style="fill: rgb(207, 186, 92);" transform="matrix(4.198465824127197, 0, 0, 4.198465824127197, -5, -4)"/>
<path d="M 229.399997 53.099998 A 1.2 1.2 0 0 1 228.199997 54.299999 A 1.2 1.2 0 0 1 226.999997 53.099998 A 1.2 1.2 0 0 1 228.199997 51.899998 A 1.2 1.2 0 0 1 229.399997 53.099998 Z" class="st18" style="fill: rgb(207, 186, 92);" transform="matrix(4.198465824127197, 0, 0, 4.198465824127197, -5, -4)"/>
<path d="M 225.299994 50.799999 A 1.4 1.4 0 0 1 223.899994 52.199999 A 1.4 1.4 0 0 1 222.499994 50.799999 A 1.4 1.4 0 0 1 223.899994 49.399999 A 1.4 1.4 0 0 1 225.299994 50.799999 Z" class="st13" style="fill: rgb(235, 213, 105);" transform="matrix(4.198465824127197, 0, 0, 4.198465824127197, -5, -4)"/>
<path d="M 232.9 57.299999 A 1.4 1.4 0 0 1 231.5 58.699999 A 1.4 1.4 0 0 1 230.1 57.299999 A 1.4 1.4 0 0 1 231.5 55.899999 A 1.4 1.4 0 0 1 232.9 57.299999 Z" class="st13" style="fill: rgb(235, 213, 105);" transform="matrix(4.198465824127197, 0, 0, 4.198465824127197, -5, -4)"/>
<path d="M 214.300006 53.099998 A 1.2 1.2 0 0 1 213.100006 54.299999 A 1.2 1.2 0 0 1 211.900006 53.099998 A 1.2 1.2 0 0 1 213.100006 51.899998 A 1.2 1.2 0 0 1 214.300006 53.099998 Z" class="st18" style="fill: rgb(207, 186, 92);" transform="matrix(4.198465824127197, 0, 0, 4.198465824127197, -5, -4)"/>
<path d="M 217.000006 53.5 A 1.9 1.9 0 0 1 215.100006 55.4 A 1.9 1.9 0 0 1 213.200006 53.5 A 1.9 1.9 0 0 1 215.100006 51.6 A 1.9 1.9 0 0 1 217.000006 53.5 Z" class="st18" style="fill: rgb(207, 186, 92);" transform="matrix(4.198465824127197, 0, 0, 4.198465824127197, -5, -4)"/>
<path d="M 225.699994 47.5 A 3.3 3.3 0 0 1 222.399994 50.8 A 3.3 3.3 0 0 1 219.099994 47.5 A 3.3 3.3 0 0 1 222.399994 44.2 A 3.3 3.3 0 0 1 225.699994 47.5 Z" class="st13" style="fill: rgb(235, 213, 105);" transform="matrix(4.198465824127197, 0, 0, 4.198465824127197, -5, -4)"/>
<path d="M 231.499997 59.200001 A 3.3 3.3 0 0 1 228.199997 62.500001 A 3.3 3.3 0 0 1 224.899997 59.200001 A 3.3 3.3 0 0 1 228.199997 55.900001 A 3.3 3.3 0 0 1 231.499997 59.200001 Z" class="st13" style="fill: rgb(235, 213, 105);" transform="matrix(4.198465824127197, 0, 0, 4.198465824127197, -5, -4)"/>
<path d="M 229.600003 50.099998 A 9.3 9.3 0 0 1 220.300003 59.399999 A 9.3 9.3 0 0 1 211.000003 50.099998 A 9.3 9.3 0 0 1 220.300003 40.799998 A 9.3 9.3 0 0 1 229.600003 50.099998 Z" class="st15" style="fill: rgb(255, 255, 255); opacity: 0.2;" transform="matrix(4.198465824127197, 0, 0, 4.198465824127197, -5, -4)"/>
<path d="M227.8,40.8c2.8,2.2,4.5,5.6,4.5,9.4c0,6.8-5.6,12.2-12.6,12.2c-3.9,0-7.3-1.7-9.6-4.4c1.9,5.2,7,8.8,13,8.8&#10;&#9;&#9;c7.6,0,13.8-6,13.8-13.4C236.9,47.6,233.1,42.7,227.8,40.8z" transform="matrix(4.198465824127197, 0, 0, 4.198465824127197, -5, -4)" style="opacity: 0.03;"/>
















<path d="M 278.100006 170.699997 H 289.900006 V 174.899997 H 278.100006 V 170.699997 Z" transform="matrix(4.098122596740723, 0.9127465486526488, -0.9127465486526488, 4.098122596740723, 181.27374267578125, -245.8387603759765)" class="st17" style="fill: rgb(255, 230, 115);"/>
<path class="st21" d="M280.3,146.5c0,0-12.6,3-16.1,20.3c0,0,6.2-3.7,13.2-2.1" style="fill: rgb(245, 160, 0);" transform="matrix(4.198465824127197, 0, 0, 4.198465824127197, -5, -4)"/>
<path class="st21" d="M297.6,150.4c0,0,10,8.1,5.9,25.2c0,0-4.1-6-11-7.5" style="fill: rgb(245, 160, 0);" transform="matrix(4.198465824127197, 0, 0, 4.198465824127197, -5, -4)"/>
<path class="st3" d="M296.9,113.8c0,0-14.1,7-18.2,25.4c-4.1,18.4-3.7,31.3-3.7,31.3l8.8,2l8.8,2c0,0,5.8-11.5,9.9-29.9&#10;&#9;&#9;C306.6,126.1,296.9,113.8,296.9,113.8z" style="fill: rgb(250, 116, 52);" transform="matrix(4.198465824127197, 0, 0, 4.198465824127197, -5, -4)"/>
<path class="st17" d="M303.1,129.5l-9.2-2.1l-9.2-2.1c-2.4,3.6-4.7,8.2-5.9,13.9c-1.1,4.9-1.9,9.4-2.4,13.4l11.4,2.5l11.4,2.5&#10;&#9;&#9;c1.2-3.8,2.4-8.2,3.5-13.1C303.8,138.9,303.7,133.8,303.1,129.5z" style="fill: rgb(255, 230, 115);" transform="matrix(4.198465824127197, 0, 0, 4.198465824127197, -5, -4)"/>
<path class="st21" d="M302.2,125.3l-7.5-1.7l-7.5-1.7c-2.1,2.4-4.1,5.5-5.8,9.2l11.1,2.5l11.1,2.5&#10;&#9;&#9;C303.6,132.1,303,128.4,302.2,125.3z" style="fill: rgb(245, 160, 0);" transform="matrix(4.198465824127197, 0, 0, 4.198465824127197, -5, -4)"/>
<path class="st22" d="M301.2,149.8c0.1-0.5,0.3-1.1,0.4-1.6c0,0,0-0.1,0-0.1c0.1-0.5,0.3-1.1,0.4-1.6c0,0,0-0.1,0-0.1&#10;&#9;&#9;c0.1-0.6,0.3-1.2,0.4-1.8c0.1-0.7,0.3-1.3,0.4-1.9c0-0.2,0.1-0.4,0.1-0.6c0.1-0.5,0.1-0.9,0.2-1.4c0-0.2,0-0.4,0.1-0.6&#10;&#9;&#9;c0-0.5,0.1-0.9,0.1-1.3c0-0.2,0-0.3,0-0.5c0-0.6,0.1-1.1,0.1-1.7c0,0,0,0,0-0.1c0-0.1,0-0.2,0-0.4l0,0c0,0,0-0.1,0-0.1&#10;&#9;&#9;c0-0.5,0-0.9,0-1.3c0-0.1,0-0.1,0-0.2c0-0.5,0-1-0.1-1.5c0-0.1,0-0.2,0-0.3c0-0.5-0.1-0.9-0.1-1.4c0-0.1,0-0.2,0-0.3&#10;&#9;&#9;c-1.2-10.7-6.4-17.2-6.4-17.2s0,0-0.1,0l-2.2,9.8l-0.8,3.8l-1.4,6.3l-4.8,21.5l-3.8,17.4l8.8,2&#10;&#9;&#9;C292.6,174.5,297.3,165.2,301.2,149.8C301.2,149.9,301.2,149.9,301.2,149.8z" style="fill: rgb(29, 29, 27); opacity: 0.1;" transform="matrix(4.198465824127197, 0, 0, 4.198465824127197, -5, -4)"/>
<g transform="matrix(4.198465824127197, 0, 0, 4.198465824127197, -5, -4)">
		<g>
			<path class="st8" d="M296.5,145.3c-0.8,3.5-4.3,5.8-7.8,5c-3.5-0.8-5.7-4.3-5-7.8c0.8-3.5,4.3-5.8,7.8-5&#10;&#9;&#9;&#9;&#9;C295,138.3,297.3,141.8,296.5,145.3z" style="fill: rgb(154, 84, 72);"/>
		</g>
	</g><g transform="matrix(4.198465824127197, 0, 0, 4.198465824127197, -5, -4)">
			<path class="st8" d="M295.3,144.4c-0.7,3.1-3.7,5.1-6.8,4.4c-3.1-0.7-5-3.7-4.4-6.8c0.7-3.1,3.7-5.1,6.8-4.4&#10;&#9;&#9;&#9;&#9;C294,138.2,296,141.3,295.3,144.4z" style="fill: rgb(154, 84, 72);"/>
		</g><g transform="matrix(4.198465824127197, 0, 0, 4.198465824127197, -5, -4)">
			<path class="st8" d="M288.6,150.8c-3.7-0.8-6.1-4.6-5.3-8.3c0.8-3.8,4.6-6.2,8.3-5.3l0,0c3.7,0.8,6.1,4.6,5.3,8.3&#10;&#9;&#9;&#9;&#9;C296.1,149.2,292.4,151.6,288.6,150.8L288.6,150.8z M291.4,138c-3.3-0.7-6.5,1.4-7.3,4.7c-0.7,3.3,1.4,6.6,4.6,7.3l0,0&#10;&#9;&#9;&#9;&#9;c3.3,0.7,6.5-1.4,7.3-4.7C296.8,141.9,294.7,138.7,291.4,138z" style="fill: rgb(154, 84, 72);"/>
		</g><g transform="matrix(4.198465824127197, 0, 0, 4.198465824127197, -5, -4)">
			
				<path d="M 291.300012 141 A 1.6 1.6 0 0 1 289.700012 142.6 A 1.6 1.6 0 0 1 288.100012 141 A 1.6 1.6 0 0 1 289.700012 139.4 A 1.6 1.6 0 0 1 291.300012 141 Z" transform="matrix(0.9765 0.2157 -0.2157 0.9765 37.2356 -59.1635)" class="st8" style="fill: rgb(154, 84, 72);"/>
		</g><g transform="matrix(4.198465824127197, 0, 0, 4.198465824127197, -5, -4)">
			<path d="M 287.8 141.899994 A 0.8 0.8 0 0 1 287 142.699994 A 0.8 0.8 0 0 1 286.2 141.899994 A 0.8 0.8 0 0 1 287 141.099994 A 0.8 0.8 0 0 1 287.8 141.899994 Z" class="st8" style="fill: rgb(154, 84, 72);"/>
		</g>
<g transform="matrix(4.198465824127197, 0, 0, 4.198465824127197, -5, -4)">
		<path class="st23" d="M279.1,194c0,0,16-15,3.9-17.6C270.9,173.7,279.1,194,279.1,194z" style="fill: rgb(241, 137, 6);"/>
	</g>
<g transform="matrix(4.198465824127197, 0, 0, 4.198465824127197, -5, -4)">
		<path class="st17" d="M280.3,188.5c0,0,10.3-10.5,2.7-12.2C275.4,174.7,280.3,188.5,280.3,188.5z" style="fill: rgb(255, 230, 115);"/>
	</g>
















<path d="M 111.3 134.800003 A 14.3 14.3 0 0 1 97 149.100003 A 14.3 14.3 0 0 1 82.7 134.800003 A 14.3 14.3 0 0 1 97 120.500003 A 14.3 14.3 0 0 1 111.3 134.800003 Z" class="st5" style="fill: rgb(248, 233, 211);" transform="matrix(4.198465824127197, 0, 0, 4.198465824127197, -5, -4)"/>
<path d="M 253.199997 130.199997 A 19 19 0 0 1 234.199997 149.199997 A 19 19 0 0 1 215.199997 130.199997 A 19 19 0 0 1 234.199997 111.199997 A 19 19 0 0 1 253.199997 130.199997 Z" class="st5" style="fill: rgb(248, 233, 211);" transform="matrix(4.198465824127197, 0, 0, 4.198465824127197, -5, -4)"/>
<path d="M 142.900006 134.800003 A 14.3 14.3 0 0 1 128.600006 149.100003 A 14.3 14.3 0 0 1 114.300006 134.800003 A 14.3 14.3 0 0 1 128.600006 120.500003 A 14.3 14.3 0 0 1 142.900006 134.800003 Z" class="st5" style="fill: rgb(248, 233, 211);" transform="matrix(4.198465824127197, 0, 0, 4.198465824127197, -5, -4)"/>
<path d="M 203.600003 125 A 14.3 14.3 0 0 1 189.300003 139.3 A 14.3 14.3 0 0 1 175.000003 125 A 14.3 14.3 0 0 1 189.300003 110.7 A 14.3 14.3 0 0 1 203.600003 125 Z" class="st5" style="fill: rgb(248, 233, 211);" transform="matrix(4.198465824127197, 0, 0, 4.198465824127197, -5, -4)"/>
<path d="M 159.899997 125.599998 A 12.2 12.2 0 0 1 147.699997 137.799998 A 12.2 12.2 0 0 1 135.499997 125.599998 A 12.2 12.2 0 0 1 147.699997 113.399999 A 12.2 12.2 0 0 1 159.899997 125.599998 Z" class="st5" style="fill: rgb(248, 233, 211);" transform="matrix(4.198465824127197, 0, 0, 4.198465824127197, -5, -4)"/>
<path d="M 221.300006 129.100006 A 12.2 12.2 0 0 1 209.100006 141.300006 A 12.2 12.2 0 0 1 196.900006 129.100006 A 12.2 12.2 0 0 1 209.100006 116.900006 A 12.2 12.2 0 0 1 221.300006 129.100006 Z" class="st5" style="fill: rgb(248, 233, 211);" transform="matrix(4.198465824127197, 0, 0, 4.198465824127197, -5, -4)"/>
<path d="M 124.199999 125.199997 A 11.6 11.6 0 0 1 112.599998 136.799997 A 11.6 11.6 0 0 1 100.999998 125.199997 A 11.6 11.6 0 0 1 112.599998 113.599997 A 11.6 11.6 0 0 1 124.199999 125.199997 Z" class="st5" style="fill: rgb(248, 233, 211);" transform="matrix(4.198465824127197, 0, 0, 4.198465824127197, -5, -4)"/>
<path d="M 177.499994 130.800003 A 11.6 11.6 0 0 1 165.899994 142.400003 A 11.6 11.6 0 0 1 154.299994 130.800003 A 11.6 11.6 0 0 1 165.899994 119.200003 A 11.6 11.6 0 0 1 177.499994 130.800003 Z" class="st5" style="fill: rgb(248, 233, 211);" transform="matrix(4.198465824127197, 0, 0, 4.198465824127197, -5, -4)"/>
<path d="M 97 149.199997 L 235.899994 149.199997 L 234.199997 127.900002 L 107.099998 127.900002" class="st5" style="fill: rgb(248, 233, 211);" transform="matrix(4.198465824127197, 0, 0, 4.198465824127197, -5, -4)"/>
<path d="M 197.800003 93.900002 H 206.900003 V 123.900002 H 197.800003 V 93.900002 Z" class="st5" style="fill: rgb(248, 233, 211);" transform="matrix(4.198465824127197, 0, 0, 4.198465824127197, -5, -4)"/>
<path d="M 129.600006 93.900002 H 138.700006 V 123.900002 H 129.600006 V 93.900002 Z" class="st5" style="fill: rgb(248, 233, 211);" transform="matrix(4.198465824127197, 0, 0, 4.198465824127197, -5, -4)"/>
<path d="M 163.800003 106.400002 H 172.900003 V 136.400002 H 163.800003 V 106.400002 Z" class="st5" style="fill: rgb(248, 233, 211);" transform="matrix(4.198465824127197, 0, 0, 4.198465824127197, -5, -4)"/>
<path d="M 166.899994 50.5 H 169.799994 V 112.400002 H 166.899994 V 50.5 Z" class="st9" style="fill: rgb(248, 122, 50);" transform="matrix(4.198465824127197, 0, 0, 4.198465824127197, -5, -4)"/>
<path d="M 203.599994 157.100006 A 5.2 5.2 0 0 1 198.399994 162.300006 A 5.2 5.2 0 0 1 193.199994 157.100006 A 5.2 5.2 0 0 1 198.399994 151.900006 A 5.2 5.2 0 0 1 203.599994 157.100006 Z" class="st3" style="fill: rgb(250, 116, 52);" transform="matrix(4.198465824127197, 0, 0, 4.198465824127197, -5, -4)"/>
<path d="M 150.900003 181.600006 A 9.1 9.1 0 0 1 141.800003 190.700006 A 9.1 9.1 0 0 1 132.700003 181.600006 A 9.1 9.1 0 0 1 141.800003 172.500006 A 9.1 9.1 0 0 1 150.900003 181.600006 Z" class="st3" style="fill: rgb(250, 116, 52);" transform="matrix(4.198465824127197, 0, 0, 4.198465824127197, -5, -4)"/>
<path d="M 166.900003 157.100006 A 6.1 6.1 0 0 1 160.800003 163.200006 A 6.1 6.1 0 0 1 154.700003 157.100006 A 6.1 6.1 0 0 1 160.800003 151.000006 A 6.1 6.1 0 0 1 166.900003 157.100006 Z" class="st4" style="fill: rgb(252, 171, 15);" transform="matrix(4.198465824127197, 0, 0, 4.198465824127197, -5, -4)"/>
<path d="M 191.400003 181.600006 A 6.1 6.1 0 0 1 185.300003 187.700006 A 6.1 6.1 0 0 1 179.200003 181.600006 A 6.1 6.1 0 0 1 185.300003 175.500006 A 6.1 6.1 0 0 1 191.400003 181.600006 Z" class="st4" style="fill: rgb(252, 171, 15);" transform="matrix(4.198465824127197, 0, 0, 4.198465824127197, -5, -4)"/>
<path d="M 127.099997 158.5 A 8.4 8.4 0 0 1 118.699997 166.9 A 8.4 8.4 0 0 1 110.299997 158.5 A 8.4 8.4 0 0 1 118.699997 150.1 A 8.4 8.4 0 0 1 127.099997 158.5 Z" class="st4" style="fill: rgb(252, 171, 15);" transform="matrix(4.198465824127197, 0, 0, 4.198465824127197, -5, -4)"/>
<path d="M 188.400003 181.600006 A 3.1 3.1 0 0 1 185.300003 184.700006 A 3.1 3.1 0 0 1 182.200003 181.600006 A 3.1 3.1 0 0 1 185.300003 178.500006 A 3.1 3.1 0 0 1 188.400003 181.600006 Z" class="st3" style="fill: rgb(250, 116, 52);" transform="matrix(4.198465824127197, 0, 0, 4.198465824127197, -5, -4)"/>
<path d="M 163.900003 157.100006 A 3.1 3.1 0 0 1 160.800003 160.200006 A 3.1 3.1 0 0 1 157.700003 157.100006 A 3.1 3.1 0 0 1 160.800003 154.000006 A 3.1 3.1 0 0 1 163.900003 157.100006 Z" class="st3" style="fill: rgb(250, 116, 52);" transform="matrix(4.198465824127197, 0, 0, 4.198465824127197, -5, -4)"/>
<path d="M 122.899997 158.5 A 4.2 4.2 0 0 1 118.699997 162.7 A 4.2 4.2 0 0 1 114.499997 158.5 A 4.2 4.2 0 0 1 118.699997 154.3 A 4.2 4.2 0 0 1 122.899997 158.5 Z" class="st3" style="fill: rgb(250, 116, 52);" transform="matrix(4.198465824127197, 0, 0, 4.198465824127197, -5, -4)"/>
<path class="st15" d="M245.7,20.4c-0.3,0-0.5-0.2-0.5-0.5c0-0.3,0.2-0.5,0.5-0.5l2-0.1c0.2,0,0.5,0.2,0.5,0.5&#10;&#9;&#9;&#9;c0,0.3-0.2,0.5-0.5,0.5L245.7,20.4C245.8,20.4,245.7,20.4,245.7,20.4z" style="fill: rgb(255, 255, 255);" transform="matrix(4.198465824127197, 0, 0, 4.198465824127197, -5, -4)"/>


<g transform="matrix(4.198465824127197, 0, 0, 4.198465824127197, -5, -4)">
		
			<path d="M 251.099997 19.9 A 5.4 5.4 0 0 1 245.699997 25.3 A 5.4 5.4 0 0 1 240.299997 19.9 A 5.4 5.4 0 0 1 245.699997 14.5 A 5.4 5.4 0 0 1 251.099997 19.9 Z" transform="matrix(-0.7071 -0.7071 0.7071 -0.7071 405.45 207.6578)" class="st4" style="fill: rgb(252, 171, 15);"/>
	</g>


<g transform="matrix(4.198465824127197, 0, 0, 4.198465824127197, -5, -4)">
		<path d="M 284.199988 99 A 2.9 2.9 0 0 1 281.299988 101.9 A 2.9 2.9 0 0 1 278.399988 99 A 2.9 2.9 0 0 1 281.299988 96.1 A 2.9 2.9 0 0 1 284.199988 99 Z" transform="matrix(-0.707 -0.7072 0.7072 -0.707 410.1523 367.961)" class="st3" style="fill: rgb(250, 116, 52);"/>
	</g>

<path class="st15" d="M132.4,25.8c0,0-0.1,0-0.1,0l-3.9-1c-0.3-0.1-0.4-0.3-0.4-0.6c0.1-0.3,0.3-0.4,0.6-0.4l3.9,1&#10;&#9;&#9;c0.3,0.1,0.4,0.3,0.4,0.6C132.8,25.6,132.6,25.8,132.4,25.8z M124.7,23.7c0,0-0.1,0-0.1,0l-3.9-1c-0.3-0.1-0.4-0.3-0.4-0.6&#10;&#9;&#9;c0.1-0.3,0.3-0.4,0.6-0.4l3.9,1c0.3,0.1,0.4,0.3,0.4,0.6C125.1,23.6,124.9,23.7,124.7,23.7z M116.9,21.7c0,0-0.1,0-0.1,0l-3.9-1&#10;&#9;&#9;c-0.3-0.1-0.4-0.3-0.4-0.6c0.1-0.3,0.3-0.4,0.6-0.4l3.9,1c0.3,0.1,0.4,0.3,0.4,0.6C117.4,21.5,117.2,21.7,116.9,21.7z M109.2,19.6&#10;&#9;&#9;c0,0-0.1,0-0.1,0l-3.9-1c-0.3-0.1-0.4-0.3-0.4-0.6c0.1-0.3,0.3-0.4,0.6-0.4l3.9,1c0.3,0.1,0.4,0.3,0.4,0.6&#10;&#9;&#9;C109.6,19.5,109.4,19.6,109.2,19.6z M101.5,17.6c0,0-0.1,0-0.1,0l-0.5-0.1c-0.3-0.1-0.4-0.3-0.4-0.6c0.1-0.3,0.3-0.4,0.6-0.4&#10;&#9;&#9;l0.5,0.1c0.3,0.1,0.4,0.3,0.4,0.6C101.9,17.4,101.7,17.6,101.5,17.6z" style="fill: rgb(255, 255, 255);" transform="matrix(4.198465824127197, 0, 0, 4.198465824127197, -5, -4)"/>



<g transform="matrix(4.198465824127197, 0, 0, 4.198465824127197, -5, -4)">
		
			<path d="M 137.799994 25.299999 A 5.4 5.4 0 0 1 132.399994 30.699999 A 5.4 5.4 0 0 1 126.999994 25.299999 A 5.4 5.4 0 0 1 132.399994 19.899999 A 5.4 5.4 0 0 1 137.799994 25.299999 Z" transform="matrix(-0.7071 -0.7071 0.7071 -0.7071 208.1744 136.7365)" class="st4" style="fill: rgb(252, 171, 15);"/>
	</g>


<g transform="matrix(4.198465824127197, 0, 0, 4.198465824127197, -5, -4)">
		<path d="M 103.9 17 A 2.9 2.9 0 0 1 101 19.9 A 2.9 2.9 0 0 1 98.1 17 A 2.9 2.9 0 0 1 101 14.1 A 2.9 2.9 0 0 1 103.9 17 Z" transform="matrix(-0.707 -0.7072 0.7072 -0.707 160.4362 100.3736)" class="st3" style="fill: rgb(250, 116, 52);"/>
	</g>


<path d="M 240.299997 179.899994 A 6.1 6.1 0 0 1 234.199997 185.999994 A 6.1 6.1 0 0 1 228.099997 179.899994 A 6.1 6.1 0 0 1 234.199997 173.799994 A 6.1 6.1 0 0 1 240.299997 179.899994 Z" class="st5" style="fill: rgb(248, 233, 211);" transform="matrix(4.198465824127197, 0, 0, 4.198465824127197, -5, -4)"/>
<path d="M 237.699997 179.899994 A 3.5 3.5 0 0 1 234.199997 183.399994 A 3.5 3.5 0 0 1 230.699997 179.899994 A 3.5 3.5 0 0 1 234.199997 176.399994 A 3.5 3.5 0 0 1 237.699997 179.899994 Z" class="st0" style="fill: rgb(56, 52, 75);" transform="matrix(4.198465824127197, 0, 0, 4.198465824127197, -5, -4)"/>
<path d="M 138.499994 213.600006 A 6.1 6.1 0 0 1 132.399994 219.700006 A 6.1 6.1 0 0 1 126.299994 213.600006 A 6.1 6.1 0 0 1 132.399994 207.500006 A 6.1 6.1 0 0 1 138.499994 213.600006 Z" class="st5" style="fill: rgb(248, 233, 211);" transform="matrix(4.198465824127197, 0, 0, 4.198465824127197, -5, -4)"/>
<path d="M 135.899994 213.600006 A 3.5 3.5 0 0 1 132.399994 217.100006 A 3.5 3.5 0 0 1 128.899994 213.600006 A 3.5 3.5 0 0 1 132.399994 210.100006 A 3.5 3.5 0 0 1 135.899994 213.600006 Z" class="st0" style="fill: rgb(56, 52, 75);" transform="matrix(4.198465824127197, 0, 0, 4.198465824127197, -5, -4)"/>
<path d="M 269.899988 105 A 6.1 6.1 0 0 1 263.799988 111.1 A 6.1 6.1 0 0 1 257.699988 105 A 6.1 6.1 0 0 1 263.799988 98.9 A 6.1 6.1 0 0 1 269.899988 105 Z" class="st5" style="fill: rgb(248, 233, 211);" transform="matrix(4.198465824127197, 0, 0, 4.198465824127197, -5, -4)"/>
<path d="M 267.299988 105 A 3.5 3.5 0 0 1 263.799988 108.5 A 3.5 3.5 0 0 1 260.299988 105 A 3.5 3.5 0 0 1 263.799988 101.5 A 3.5 3.5 0 0 1 267.299988 105 Z" class="st0" style="fill: rgb(56, 52, 75);" transform="matrix(4.198465824127197, 0, 0, 4.198465824127197, -5, -4)"/>
<path d="M 113.199998 60.900002 A 6.1 6.1 0 0 1 107.099998 67.000001 A 6.1 6.1 0 0 1 100.999999 60.900002 A 6.1 6.1 0 0 1 107.099998 54.800002 A 6.1 6.1 0 0 1 113.199998 60.900002 Z" class="st5" style="fill: rgb(248, 233, 211);" transform="matrix(4.198465824127197, 0, 0, 4.198465824127197, -5, -4)"/>
<path d="M 110.599998 60.900002 A 3.5 3.5 0 0 1 107.099998 64.400002 A 3.5 3.5 0 0 1 103.599998 60.900002 A 3.5 3.5 0 0 1 107.099998 57.400002 A 3.5 3.5 0 0 1 110.599998 60.900002 Z" class="st0" style="fill: rgb(56, 52, 75);" transform="matrix(4.198465824127197, 0, 0, 4.198465824127197, -5, -4)"/>
<path d="M 250.300003 87.5 A 3.5 3.5 0 0 1 246.800003 91 A 3.5 3.5 0 0 1 243.300003 87.5 A 3.5 3.5 0 0 1 246.800003 84 A 3.5 3.5 0 0 1 250.300003 87.5 Z" class="st5" style="fill: rgb(248, 233, 211);" transform="matrix(4.198465824127197, 0, 0, 4.198465824127197, -5, -4)"/>
<path d="M 248.900003 87.5 A 2.1 2.1 0 0 1 246.800003 89.6 A 2.1 2.1 0 0 1 244.700003 87.5 A 2.1 2.1 0 0 1 246.800003 85.4 A 2.1 2.1 0 0 1 248.900003 87.5 Z" class="st0" style="fill: rgb(56, 52, 75);" transform="matrix(4.198465824127197, 0, 0, 4.198465824127197, -5, -4)"/>
<path d="M 142.399994 41.799999 A 3.5 3.5 0 0 1 138.899994 45.299999 A 3.5 3.5 0 0 1 135.399994 41.799999 A 3.5 3.5 0 0 1 138.899994 38.299999 A 3.5 3.5 0 0 1 142.399994 41.799999 Z" class="st5" style="fill: rgb(248, 233, 211);" transform="matrix(4.198465824127197, 0, 0, 4.198465824127197, -5, -4)"/>
<path d="M 140.999994 41.799999 A 2.1 2.1 0 0 1 138.899994 43.899999 A 2.1 2.1 0 0 1 136.799994 41.799999 A 2.1 2.1 0 0 1 138.899994 39.699999 A 2.1 2.1 0 0 1 140.999994 41.799999 Z" class="st0" style="fill: rgb(56, 52, 75);" transform="matrix(4.198465824127197, 0, 0, 4.198465824127197, -5, -4)"/>
<path d="M 122.199997 194.199997 A 3.5 3.5 0 0 1 118.699997 197.699997 A 3.5 3.5 0 0 1 115.199997 194.199997 A 3.5 3.5 0 0 1 118.699997 190.699997 A 3.5 3.5 0 0 1 122.199997 194.199997 Z" class="st5" style="fill: rgb(248, 233, 211);" transform="matrix(4.198465824127197, 0, 0, 4.198465824127197, -5, -4)"/>
<path d="M 120.799997 194.199997 A 2.1 2.1 0 0 1 118.699997 196.299997 A 2.1 2.1 0 0 1 116.599997 194.199997 A 2.1 2.1 0 0 1 118.699997 192.099997 A 2.1 2.1 0 0 1 120.799997 194.199997 Z" class="st0" style="fill: rgb(56, 52, 75);" transform="matrix(4.198465824127197, 0, 0, 4.198465824127197, -5, -4)"/>

<path d="M 120.54000091552734 133.1392364501953 C 120.54000091552734 133.5125732421875 120.47666931152344 133.91590881347656 120.3499984741211 134.3492431640625 C 120.21666717529297 134.77590942382812 120.00333404541016 135.17257690429688 119.70999908447266 135.53924560546875 C 119.41666412353516 135.90589904785156 119.03666687011719 136.2125701904297 118.56999969482422 136.45924377441406 C 118.10333251953125 136.70590209960938 117.52999877929688 136.82923889160156 116.8499984741211 136.82923889160156 L 105.27999877929688 136.82923889160156 C 105.05999755859375 136.82923889160156 104.8566665649414 136.78924560546875 104.66999816894531 136.70924377441406 C 104.48332977294922 136.6359100341797 104.32333374023438 136.52923583984375 104.19000244140625 136.3892364501953 C 104.05000305175781 136.2559051513672 103.94000244140625 136.0925750732422 103.86000061035156 135.8992462158203 C 103.78666687011719 135.7125701904297 103.75 135.5092315673828 103.75 135.28924560546875 L 103.75 121.55923461914062 C 103.75 121.34590148925781 103.78666687011719 121.14590454101562 103.86000061035156 120.95923614501953 C 103.94000244140625 120.77256774902344 104.05000305175781 120.60923767089844 104.19000244140625 120.46923828125 C 104.32333374023438 120.32923889160156 104.48332977294922 120.21923828125 104.66999816894531 120.13923645019531 C 104.8566665649414 120.06590270996094 105.05999755859375 120.02923583984375 105.27999877929688 120.02923583984375 L 115.47999572753906 120.02923583984375 C 115.85333251953125 120.02923583984375 116.25333404541016 120.09257507324219 116.68000030517578 120.21923828125 C 117.11333465576172 120.35256958007812 117.51333618164062 120.56590270996094 117.87999725341797 120.85923767089844 C 118.25333404541016 121.15257263183594 118.5633316040039 121.53590393066406 118.80999755859375 122.00923919677734 C 119.05667114257812 122.47590637207031 119.18000030517578 123.04924011230469 119.18000030517578 123.72924041748047 L 119.18000030517578 124.29924011230469 C 119.18000030517578 124.83924102783203 119.08999633789062 125.41923522949219 118.91000366210938 126.03923797607422 C 118.72999572753906 126.65924072265625 118.44000244140625 127.24923706054688 118.04000091552734 127.80923461914062 C 118.38666534423828 128.01589965820312 118.70999908447266 128.2692413330078 119.01000213623047 128.56924438476562 C 119.30999755859375 128.86257934570312 119.57333374023438 129.20590209960938 119.80000305175781 129.5992431640625 C 120.02666473388672 129.99256896972656 120.2066650390625 130.4325714111328 120.33999633789062 130.9192352294922 C 120.47333526611328 131.41256713867188 120.54000091552734 131.95590209960938 120.54000091552734 132.5492401123047 L 120.54000091552734 133.1392364501953 M 117.48999786376953 132.5492401123047 C 117.48999786376953 132.1492462158203 117.42666625976562 131.79257202148438 117.30000305175781 131.47923278808594 C 117.18000030517578 131.16590881347656 117.00666809082031 130.89590454101562 116.77999877929688 130.6692352294922 C 116.55332946777344 130.44256591796875 116.27999877929688 130.26589965820312 115.95999908447266 130.1392364501953 C 115.63999938964844 130.0192413330078 115.27999877929688 129.95924377441406 114.87999725341797 129.95924377441406 L 108.01000213623047 129.95924377441406 L 108.01000213623047 126.88923645019531 L 113.51000213623047 126.88923645019531 C 113.91000366210938 126.88923645019531 114.27000427246094 126.82923889160156 114.58999633789062 126.70923614501953 C 114.91000366210938 126.58924102783203 115.18333435058594 126.41590881347656 115.41000366210938 126.18923950195312 C 115.63666534423828 125.96257019042969 115.80999755859375 125.68923950195312 115.93000030517578 125.3692398071289 C 116.05000305175781 125.055908203125 116.11000061035156 124.6992416381836 116.11000061035156 124.29924011230469 L 116.11000061035156 123.72924041748047 C 116.11000061035156 123.28923797607422 115.9000015258789 123.0692367553711 115.47999572753906 123.0692367553711 L 106.79000091552734 123.0692367553711 L 106.79000091552734 133.77923583984375 L 116.8499984741211 133.77923583984375 C 116.90333557128906 133.77923583984375 116.97000122070312 133.77590942382812 117.05000305175781 133.7692413330078 C 117.12333679199219 133.7625732421875 117.1933364868164 133.73924255371094 117.26000213623047 133.69923400878906 C 117.31999969482422 133.65924072265625 117.37333679199219 133.5925750732422 117.41999816894531 133.49923706054688 C 117.46666717529297 133.40589904785156 117.48999786376953 133.27923583984375 117.48999786376953 133.11923217773438 L 117.48999786376953 132.5492401123047 ZM 126.25509643554688 136.82923889160156 L 123.2051010131836 136.82923889160156 L 123.2051010131836 120.02923583984375 L 126.25509643554688 120.02923583984375 L 126.25509643554688 136.82923889160156 ZM 145.24691772460938 136.82923889160156 L 131.346923828125 136.82923889160156 C 131.1335906982422 136.82923889160156 130.93359375 136.78924560546875 130.74691772460938 136.70924377441406 C 130.5535888671875 136.6359100341797 130.3902587890625 136.52923583984375 130.25692749023438 136.3892364501953 C 130.11692810058594 136.2559051513672 130.01025390625 136.0925750732422 129.93692016601562 135.8992462158203 C 129.85691833496094 135.7125701904297 129.81692504882812 135.5092315673828 129.81692504882812 135.28924560546875 L 129.81692504882812 120.02923583984375 L 132.86692810058594 120.02923583984375 L 132.86692810058594 133.77923583984375 L 145.24691772460938 133.77923583984375 L 145.24691772460938 136.82923889160156 ZM 162.9161834716797 136.82923889160156 L 149.0161895751953 136.82923889160156 C 148.8028564453125 136.82923889160156 148.6028594970703 136.78924560546875 148.4161834716797 136.70924377441406 C 148.2228546142578 136.6359100341797 148.0595245361328 136.52923583984375 147.9261932373047 136.3892364501953 C 147.78619384765625 136.2559051513672 147.6795196533203 136.0925750732422 147.60618591308594 135.8992462158203 C 147.52618408203125 135.7125701904297 147.48619079589844 135.5092315673828 147.48619079589844 135.28924560546875 L 147.48619079589844 120.02923583984375 L 150.53619384765625 120.02923583984375 L 150.53619384765625 133.77923583984375 L 162.9161834716797 133.77923583984375 L 162.9161834716797 136.82923889160156 ZM 179.4430389404297 125.64923858642578 C 179.4430389404297 126.34257507324219 179.35304260253906 126.96257019042969 179.17303466796875 127.50923919677734 C 178.9997100830078 128.055908203125 178.76971435546875 128.53924560546875 178.4830322265625 128.95924377441406 C 178.18971252441406 129.37924194335938 177.84970092773438 129.73590087890625 177.46304321289062 130.02923583984375 C 177.0763702392578 130.32923889160156 176.67637634277344 130.57591247558594 176.26304626464844 130.7692413330078 C 175.84970092773438 130.95590209960938 175.42970275878906 131.0925750732422 175.00303649902344 131.1792449951172 C 174.5763702392578 131.26589965820312 174.17637634277344 131.30923461914062 173.80303955078125 131.30923461914062 L 172.5730438232422 131.30923461914062 L 172.5730438232422 136.82923889160156 L 169.50303649902344 136.82923889160156 L 169.50303649902344 131.30923461914062 L 168.2830352783203 131.30923461914062 C 167.9097137451172 131.30923461914062 167.50970458984375 131.26589965820312 167.08303833007812 131.1792449951172 C 166.6563720703125 131.0925750732422 166.23304748535156 130.95590209960938 165.8130340576172 130.7692413330078 C 165.3997039794922 130.57591247558594 164.9997100830078 130.32923889160156 164.613037109375 130.02923583984375 C 164.23304748535156 129.73590087890625 163.89637756347656 129.37924194335938 163.60304260253906 128.95924377441406 C 163.30970764160156 128.53924560546875 163.0763702392578 128.055908203125 162.90304565429688 127.50923919677734 C 162.72303771972656 126.95590209960938 162.63304138183594 126.33590698242188 162.63304138183594 125.64923858642578 L 162.63304138183594 120.02923583984375 L 165.68304443359375 120.02923583984375 L 165.68304443359375 125.64923858642578 C 165.68304443359375 126.04924011230469 165.74636840820312 126.4059066772461 165.873046875 126.71923828125 C 165.9930419921875 127.03923797607422 166.16636657714844 127.31257629394531 166.39303588867188 127.53923797607422 C 166.6197052001953 127.76590728759766 166.89637756347656 127.93923950195312 167.22303771972656 128.05923461914062 C 167.54971313476562 128.1792449951172 167.9097137451172 128.23924255371094 168.30303955078125 128.23924255371094 L 173.80303955078125 128.23924255371094 C 174.08970642089844 128.19256591796875 174.38636779785156 128.132568359375 174.6930389404297 128.05923461914062 C 174.9997100830078 127.98590850830078 175.2763671875 127.85923767089844 175.52304077148438 127.67923736572266 C 175.7763671875 127.49923706054688 175.9830322265625 127.24923706054688 176.14303588867188 126.92923736572266 C 176.30970764160156 126.60923767089844 176.39303588867188 126.18257141113281 176.39303588867188 125.64923858642578 L 176.39303588867188 120.02923583984375 L 179.4430389404297 120.02923583984375 L 179.4430389404297 125.64923858642578 ZM 206.7338104248047 127.05923461914062 C 206.7338104248047 127.75257110595703 206.6471405029297 128.37257385253906 206.4738006591797 128.9192352294922 C 206.30047607421875 129.46591186523438 206.067138671875 129.94923400878906 205.7738037109375 130.36923217773438 C 205.48046875 130.78257751464844 205.143798828125 131.1392364501953 204.76380920410156 131.43923950195312 C 204.37713623046875 131.73257446289062 203.97714233398438 131.9759063720703 203.56381225585938 132.1692352294922 C 203.143798828125 132.3559112548828 202.72047424316406 132.49256896972656 202.29380798339844 132.57923889160156 C 201.8671417236328 132.65924072265625 201.46713256835938 132.69923400878906 201.09381103515625 132.69923400878906 L 194.2038116455078 132.69923400878906 L 194.2038116455078 129.65924072265625 L 201.09381103515625 129.65924072265625 C 201.48046875 129.6259002685547 201.83380126953125 129.5458984375 202.15380859375 129.4192352294922 C 202.46713256835938 129.28590393066406 202.7371368408203 129.11257934570312 202.96380615234375 128.8992462158203 C 203.1904754638672 128.6792449951172 203.3671417236328 128.41590881347656 203.49380493164062 128.10923767089844 C 203.62046813964844 127.79590606689453 203.68380737304688 127.44590759277344 203.68380737304688 127.05923461914062 L 203.68380737304688 125.66923522949219 C 203.643798828125 125.28923797607422 203.5604705810547 124.93923950195312 203.43380737304688 124.6192398071289 C 203.31381225585938 124.29924011230469 203.143798828125 124.02590942382812 202.92381286621094 123.79924011230469 C 202.71047973632812 123.57257080078125 202.45046997070312 123.39590454101562 202.143798828125 123.26924133300781 C 201.84381103515625 123.13590240478516 201.49380493164062 123.0692367553711 201.09381103515625 123.0692367553711 L 194.2238006591797 123.0692367553711 C 193.817138671875 123.0692367553711 193.51046752929688 123.1759033203125 193.30380249023438 123.38923645019531 C 193.09046936035156 123.59590148925781 192.9838104248047 123.89923858642578 192.9838104248047 124.29924011230469 L 192.9838104248047 136.82923889160156 L 189.93380737304688 136.82923889160156 L 189.93380737304688 124.29924011230469 C 189.93380737304688 123.51924133300781 190.07713317871094 122.85590362548828 190.36380004882812 122.30923461914062 C 190.6504669189453 121.7625732421875 191.00714111328125 121.32257080078125 191.43380737304688 120.98924255371094 C 191.8604736328125 120.64923858642578 192.3238067626953 120.40257263183594 192.8238067626953 120.24923706054688 C 193.3238067626953 120.10256958007812 193.7838134765625 120.02923583984375 194.2038116455078 120.02923583984375 L 201.09381103515625 120.02923583984375 C 201.7804718017578 120.02923583984375 202.3971405029297 120.11590576171875 202.9438018798828 120.28923797607422 C 203.490478515625 120.46257019042969 203.9738006591797 120.69590759277344 204.393798828125 120.98924255371094 C 204.80714416503906 121.2825698852539 205.1604766845703 121.62257385253906 205.4538116455078 122.00923919677734 C 205.74713134765625 122.38923645019531 205.990478515625 122.78923797607422 206.18380737304688 123.20923614501953 C 206.37713623046875 123.62257385253906 206.5171356201172 124.04257202148438 206.6038055419922 124.46923828125 C 206.6904754638672 124.89590454101562 206.7338104248047 125.29590606689453 206.7338104248047 125.66923522949219 L 206.7338104248047 127.05923461914062 ZM 223.1486053466797 129.95924377441406 L 213.51861572265625 129.95924377441406 L 213.51861572265625 126.88923645019531 L 223.1486053466797 126.88923645019531 L 223.1486053466797 129.95924377441406 M 224.51861572265625 136.82923889160156 L 213.51861572265625 136.82923889160156 C 213.09860229492188 136.82923889160156 212.63861083984375 136.7559051513672 212.13861083984375 136.60923767089844 C 211.63861083984375 136.45590209960938 211.17527770996094 136.20924377441406 210.7486114501953 135.86923217773438 C 210.3219451904297 135.53590393066406 209.96861267089844 135.0959014892578 209.68861389160156 134.5492401123047 C 209.40194702148438 134.0092315673828 209.25860595703125 133.3425750732422 209.25860595703125 132.5492401123047 L 209.25860595703125 121.55923461914062 C 209.25860595703125 121.34590148925781 209.29861450195312 121.14590454101562 209.3786163330078 120.95923614501953 C 209.45193481445312 120.77256774902344 209.55860900878906 120.60923767089844 209.6986083984375 120.46923828125 C 209.83193969726562 120.32923889160156 209.99526977539062 120.21923828125 210.18861389160156 120.13923645019531 C 210.37527465820312 120.06590270996094 210.5752716064453 120.02923583984375 210.78860473632812 120.02923583984375 L 224.51861572265625 120.02923583984375 L 224.51861572265625 123.0692367553711 L 212.30860900878906 123.0692367553711 L 212.30860900878906 132.5492401123047 C 212.30860900878906 132.94923400878906 212.4119415283203 133.2559051513672 212.6186065673828 133.46923828125 C 212.83193969726562 133.6759033203125 213.14193725585938 133.77923583984375 213.54861450195312 133.77923583984375 L 224.51861572265625 133.77923583984375 L 224.51861572265625 136.82923889160156 ZM 244.2448272705078 125.66923522949219 C 244.2448272705078 126.3692398071289 244.1581573486328 126.99256896972656 243.98483276367188 127.53923797607422 C 243.8181610107422 128.08590698242188 243.58816528320312 128.56590270996094 243.29483032226562 128.97923278808594 C 243.00149536132812 129.3992462158203 242.6614990234375 129.7592315673828 242.2748260498047 130.05923461914062 C 241.89483642578125 130.35256958007812 241.4948272705078 130.5959014892578 241.0748291015625 130.78924560546875 C 240.6614990234375 130.98257446289062 240.2415008544922 131.11923217773438 239.81483459472656 131.19923400878906 C 239.38816833496094 131.28590393066406 238.9881591796875 131.32923889160156 238.61483764648438 131.32923889160156 L 244.97482299804688 136.82923889160156 L 240.26483154296875 136.82923889160156 L 233.91482543945312 131.32923889160156 L 231.72482299804688 131.32923889160156 L 231.72482299804688 128.28924560546875 L 238.61483764648438 128.28924560546875 C 238.9948272705078 128.2559051513672 239.34149169921875 128.1759033203125 239.6548309326172 128.0492401123047 C 239.97482299804688 127.91590881347656 240.2481689453125 127.74256896972656 240.47482299804688 127.52923583984375 C 240.70816040039062 127.30923461914062 240.88816833496094 127.04257202148438 241.01483154296875 126.72924041748047 C 241.14149475097656 126.42256927490234 241.204833984375 126.0692367553711 241.204833984375 125.66923522949219 L 241.204833984375 123.74923706054688 C 241.204833984375 123.5759048461914 241.18150329589844 123.44590759277344 241.13482666015625 123.35923767089844 C 241.09483337402344 123.26590728759766 241.04150390625 123.1992416381836 240.97482299804688 123.15924072265625 C 240.9081573486328 123.1192398071289 240.83816528320312 123.09257507324219 240.76483154296875 123.07923889160156 C 240.68482971191406 123.07257080078125 240.61483764648438 123.0692367553711 240.55482482910156 123.0692367553711 L 230.5048370361328 123.0692367553711 L 230.5048370361328 136.82923889160156 L 227.454833984375 136.82923889160156 L 227.454833984375 121.55923461914062 C 227.454833984375 121.34590148925781 227.4948272705078 121.14590454101562 227.5748291015625 120.95923614501953 C 227.64816284179688 120.77256774902344 227.7548370361328 120.60923767089844 227.89483642578125 120.46923828125 C 228.02816772460938 120.32923889160156 228.19149780273438 120.21923828125 228.38482666015625 120.13923645019531 C 228.57150268554688 120.06590270996094 228.77149963378906 120.02923583984375 228.98483276367188 120.02923583984375 L 240.55482482910156 120.02923583984375 C 241.23483276367188 120.02923583984375 241.80816650390625 120.14923858642578 242.2748260498047 120.38923645019531 C 242.7481689453125 120.63591003417969 243.13150024414062 120.94590759277344 243.42483520507812 121.3192367553711 C 243.71817016601562 121.69257354736328 243.92816162109375 122.09257507324219 244.05482482910156 122.51924133300781 C 244.18148803710938 122.95257568359375 244.2448272705078 123.35590362548828 244.2448272705078 123.72924041748047 L 244.2448272705078 125.66923522949219 ZM 263.79345703125 136.82923889160156 L 260.74346923828125 136.82923889160156 L 260.74346923828125 132.69923400878906 L 250.03346252441406 132.69923400878906 L 250.03346252441406 136.82923889160156 L 246.98345947265625 136.82923889160156 L 246.98345947265625 128.4292449951172 C 246.98345947265625 127.20257568359375 247.19679260253906 126.07257080078125 247.6234588623047 125.03923797607422 C 248.04345703125 124.00590515136719 248.62680053710938 123.1192398071289 249.3734588623047 122.37924194335938 C 250.12680053710938 121.63923645019531 251.01345825195312 121.06257629394531 252.03346252441406 120.64923858642578 C 253.0601348876953 120.23590087890625 254.1801300048828 120.02923583984375 255.39346313476562 120.02923583984375 L 262.2534484863281 120.02923583984375 C 262.466796875 120.02923583984375 262.66680908203125 120.06590270996094 262.85345458984375 120.13923645019531 C 263.0401306152344 120.21923828125 263.2034606933594 120.32923889160156 263.3434753417969 120.46923828125 C 263.48345947265625 120.60923767089844 263.5934753417969 120.77256774902344 263.6734619140625 120.95923614501953 C 263.7534484863281 121.14590454101562 263.79345703125 121.34590148925781 263.79345703125 121.55923461914062 L 263.79345703125 136.82923889160156 M 250.03346252441406 129.65924072265625 L 260.74346923828125 129.65924072265625 L 260.74346923828125 123.0692367553711 L 255.39346313476562 123.0692367553711 C 255.29345703125 123.0692367553711 255.0934600830078 123.08257293701172 254.79345703125 123.10923767089844 C 254.49346923828125 123.13590240478516 254.14678955078125 123.20590209960938 253.7534637451172 123.3192367553711 C 253.36012268066406 123.4259033203125 252.94346618652344 123.59257507324219 252.5034637451172 123.8192367553711 C 252.07012939453125 124.04590606689453 251.67013549804688 124.35923767089844 251.303466796875 124.75923919677734 C 250.9301300048828 125.15924072265625 250.62680053710938 125.6559066772461 250.39346313476562 126.24923706054688 C 250.15345764160156 126.8492431640625 250.03346252441406 127.5759048461914 250.03346252441406 128.4292449951172 L 250.03346252441406 129.65924072265625 ZM 282.75787353515625 136.82923889160156 L 268.85784912109375 136.82923889160156 C 268.64453125 136.82923889160156 268.44451904296875 136.78924560546875 268.25787353515625 136.70924377441406 C 268.06451416015625 136.6359100341797 267.90118408203125 136.52923583984375 267.7678527832031 136.3892364501953 C 267.62786865234375 136.2559051513672 267.5212097167969 136.0925750732422 267.4478759765625 135.8992462158203 C 267.36785888671875 135.7125701904297 267.3278503417969 135.5092315673828 267.3278503417969 135.28924560546875 L 267.3278503417969 120.02923583984375 L 270.37786865234375 120.02923583984375 L 270.37786865234375 133.77923583984375 L 282.75787353515625 133.77923583984375 L 282.75787353515625 136.82923889160156 ZM 297.7968444824219 123.0692367553711 L 291.07684326171875 123.0692367553711 L 291.07684326171875 136.82923889160156 L 288.036865234375 136.82923889160156 L 288.036865234375 123.0692367553711 L 281.3068542480469 123.0692367553711 L 281.3068542480469 120.02923583984375 L 297.7968444824219 120.02923583984375 L 297.7968444824219 123.0692367553711 ZM 315.9342041015625 136.82923889160156 L 312.8841857910156 136.82923889160156 L 312.8841857910156 132.69923400878906 L 302.1741943359375 132.69923400878906 L 302.1741943359375 136.82923889160156 L 299.12420654296875 136.82923889160156 L 299.12420654296875 128.4292449951172 C 299.12420654296875 127.20257568359375 299.3375244140625 126.07257080078125 299.7641906738281 125.03923797607422 C 300.1842041015625 124.00590515136719 300.76751708984375 123.1192398071289 301.5141906738281 122.37924194335938 C 302.26751708984375 121.63923645019531 303.1542053222656 121.06257629394531 304.1741943359375 120.64923858642578 C 305.20086669921875 120.23590087890625 306.32086181640625 120.02923583984375 307.5341796875 120.02923583984375 L 314.3941955566406 120.02923583984375 C 314.6075134277344 120.02923583984375 314.8075256347656 120.06590270996094 314.99420166015625 120.13923645019531 C 315.18084716796875 120.21923828125 315.3442077636719 120.32923889160156 315.48419189453125 120.46923828125 C 315.62420654296875 120.60923767089844 315.73419189453125 120.77256774902344 315.814208984375 120.95923614501953 C 315.8941955566406 121.14590454101562 315.9342041015625 121.34590148925781 315.9342041015625 121.55923461914062 L 315.9342041015625 136.82923889160156 M 302.1741943359375 129.65924072265625 L 312.8841857910156 129.65924072265625 L 312.8841857910156 123.0692367553711 L 307.5341796875 123.0692367553711 C 307.4342041015625 123.0692367553711 307.23419189453125 123.08257293701172 306.9342041015625 123.10923767089844 C 306.6341857910156 123.13590240478516 306.28753662109375 123.20590209960938 305.8941955566406 123.3192367553711 C 305.5008544921875 123.4259033203125 305.0841979980469 123.59257507324219 304.6441955566406 123.8192367553711 C 304.21087646484375 124.04590606689453 303.81085205078125 124.35923767089844 303.4441833496094 124.75923919677734 C 303.07086181640625 125.15924072265625 302.76751708984375 125.6559066772461 302.5341796875 126.24923706054688 C 302.294189453125 126.8492431640625 302.1741943359375 127.5759048461914 302.1741943359375 128.4292449951172 L 302.1741943359375 129.65924072265625 Z" transform="matrix(2.7475905418395996, 0, 0, 2.7475905418395996, 106.42286682128906, 207.99635314941406)" style="white-space: pre; fill: rgb(74, 69, 99); color: rgb(74, 69, 99);"/></svg>